<?xml version="1.0" encoding="UTF-8" standalone="no"?>
<!-- Created with Inkscape (http://www.inkscape.org/) -->

<svg
   xmlns:dc="http://purl.org/dc/elements/1.1/"
   xmlns:cc="http://creativecommons.org/ns#"
   xmlns:rdf="http://www.w3.org/1999/02/22-rdf-syntax-ns#"
   xmlns:svg="http://www.w3.org/2000/svg"
   xmlns="http://www.w3.org/2000/svg"
   xmlns:sodipodi="http://sodipodi.sourceforge.net/DTD/sodipodi-0.dtd"
   xmlns:inkscape="http://www.inkscape.org/namespaces/inkscape"
   width="210mm"
   height="297mm"
   viewBox="0 0 210 297"
   version="1.1"
   id="svg8"
   inkscape:version="0.92.2 (5c3e80d, 2017-08-06)"
   sodipodi:docname="iniciales.svg">
  <defs
     id="defs2" />
  <sodipodi:namedview
     id="base"
     pagecolor="#ffffff"
     bordercolor="#666666"
     borderopacity="1.0"
     inkscape:pageopacity="0.0"
     inkscape:pageshadow="2"
     inkscape:zoom="0.35"
     inkscape:cx="399.20398"
     inkscape:cy="558.69541"
     inkscape:document-units="mm"
     inkscape:current-layer="layer1"
     showgrid="false"
     inkscape:window-width="1366"
     inkscape:window-height="706"
     inkscape:window-x="-8"
     inkscape:window-y="-8"
     inkscape:window-maximized="1" />
  <metadata
     id="metadata5">
    <rdf:RDF>
      <cc:Work
         rdf:about="">
        <dc:format>image/svg+xml</dc:format>
        <dc:type
           rdf:resource="http://purl.org/dc/dcmitype/StillImage" />
        <dc:title></dc:title>
      </cc:Work>
    </rdf:RDF>
  </metadata>
  <g
     inkscape:label="Capa 1"
     inkscape:groupmode="layer"
     id="layer1">
    <ellipse
       id="path14"
       cx="100.1637"
       cy="94.404755"
       rx="84.288696"
       ry="24.94643"
       style="stroke-width:0.26458332" />
    <ellipse
       id="path16"
       cx="117.92857"
       cy="106.87797"
       rx="6.8035712"
       ry="17.008928"
       style="stroke-width:0.26458332" />
    <path
       style="fill:#ffffff;stroke-width:0.26458332"
       id="path20"
       d="m 56.393619,83.514784 c -0.107283,2.901071 -0.395163,5.792118 -0.579504,8.689186 -0.05076,1.833322 -0.650943,3.536278 -1.180134,5.264481 -0.324104,1.120383 -0.443227,2.275879 -0.422121,3.437369 0,0 -9.924532,5.14677 -9.924532,5.14677 v 0 c -0.148788,-1.26725 -0.04657,-2.52709 0.230402,-3.77555 0.446458,-1.71584 1.276818,-3.308661 1.382035,-5.110452 0.226669,-2.849846 0.599149,-5.706788 0.516139,-8.567907 0,0 9.977715,-5.083897 9.977715,-5.083897 z"
       inkscape:connector-curvature="0" />
    <path
       style="fill:#ffffff;stroke-width:0.26458332"
       id="path22"
       d="m 59.692341,83.42804 c 2.242783,1.211778 3.484708,3.108023 4.737169,5.231879 1.060034,1.644501 1.915916,3.407685 2.944968,5.069628 0.697545,1.367099 1.760088,2.457585 2.949615,3.402727 0.182626,0.144391 0.365249,0.288784 0.547875,0.433176 0,0 -9.483286,5.95914 -9.483286,5.95914 v 0 c -0.189351,-0.15207 -0.378706,-0.30414 -0.56806,-0.45621 -1.220618,-1.0815 -2.360475,-2.25035 -3.094485,-3.728947 -1.034235,-1.671944 -1.87593,-3.453019 -2.918211,-5.121246 -1.208127,-2.113385 -2.29997,-3.631964 -4.558024,-4.744257 0,0 9.442439,-6.04589 9.442439,-6.04589 z"
       inkscape:connector-curvature="0" />
    <path
       style="fill:#ffffff;stroke-width:0.26458332"
       id="path24"
       d="m 53.503115,94.734164 c 3.373326,-0.592304 6.714866,-1.350115 10.074584,-2.019908 3.593177,-0.649706 7.229679,-1.03592 10.790375,-1.854047 0,0 -8.758769,6.641751 -8.758769,6.641751 v 0 c -3.562752,0.659927 -7.163355,1.092208 -10.718368,1.796894 -3.452776,0.731666 -6.895786,1.509596 -10.366198,2.155176 0,0 8.978376,-6.719866 8.978376,-6.719866 z"
       inkscape:connector-curvature="0" />
    <path
       style="fill:#ffffff;stroke-width:0.26458332"
       id="path26"
       d="m 82.208615,84.362744 c 0.764651,4.837837 1.527265,9.675476 2.433156,14.489141 0.313796,1.467325 0.70889,2.901805 1.234771,4.305065 0,0 -9.717876,5.37339 -9.717876,5.37339 v 0 c -0.495623,-1.49384 -0.860721,-3.01215 -1.138508,-4.56361 -0.781452,-4.798109 -1.422431,-9.632293 -2.652791,-14.342405 0,0 9.841248,-5.261581 9.841248,-5.261581 z"
       inkscape:connector-curvature="0" />
    <path
       style="fill:#ffffff;stroke-width:0.26458332"
       id="path28"
       d="m 73.105845,93.865768 c 2.172737,-1.503067 4.358209,-2.978079 6.482996,-4.552236 1.448773,-1.113547 2.852872,-2.283426 4.285403,-3.417541 0,0 10.358823,-4.116329 10.358823,-4.116329 v 0 c -1.509498,1.059397 -2.903889,2.284098 -4.32795,3.453977 -2.124398,1.489355 -4.144479,3.126541 -6.380525,4.451003 0,0 -10.418747,4.181126 -10.418747,4.181126 z"
       inkscape:connector-curvature="0" />
    <path
       style="fill:#ffffff;stroke-width:0.26458332"
       id="path30"
       d="m 75.373703,102.18124 c 1.518465,-1.31521 2.922225,-2.760016 4.379989,-4.143639 0.765934,-0.716092 0.39316,-0.361108 1.119018,-1.064218 0,0 10.367116,-4.224832 10.367116,-4.224832 v 0 c -0.78785,0.645666 -0.401434,0.289849 -1.150716,1.076643 -1.530413,1.2833 -2.934414,2.714103 -4.296661,4.174924 0,0 -10.418746,4.181122 -10.418746,4.181122 z"
       inkscape:connector-curvature="0" />
    <path
       style="fill:#ffffff;stroke-width:0.26458332"
       id="path32"
       d="m 104.77457,80.490972 c -0.0861,2.49225 -0.0549,4.986546 -0.0351,7.479641 -0.004,2.318864 0.10253,4.638445 -0.2568,6.935711 -0.41586,1.723702 -0.84247,3.437948 -1.06357,5.199166 -0.0955,0.9417 -0.16892,1.88425 -0.0928,2.82851 0,0 -9.927744,5.20442 -9.927744,5.20442 v 0 c -0.148235,-1.02213 -0.09291,-2.03812 -0.0021,-3.06673 0.180872,-1.8054 0.544113,-3.57424 1.081008,-5.309381 0.533807,-2.219204 0.324961,-4.476824 0.354536,-6.743526 0.01958,-2.481169 0.05186,-4.963615 -0.03506,-7.443911 0,0 9.97771,-5.0839 9.97771,-5.0839 z"
       inkscape:connector-curvature="0" />
    <path
       style="fill:#ffffff;stroke-width:0.26458332"
       id="path34"
       d="m 108.71233,83.855757 c 0.62528,0.937427 1.1982,2.414982 2.39243,2.78488 0.37664,0.116663 1.69096,0.01037 2.02015,-0.0067 0.38395,-0.118861 0.77636,-0.213212 1.15185,-0.356581 0.39877,-0.152263 0.7919,-0.32371 1.16637,-0.52858 0.35757,-0.195619 1.37947,-0.867439 1.02327,-0.669345 -14.01221,7.792482 -9.91929,6.42176 -7.02024,3.452646 1.34148,-1.409378 2.31329,-3.10075 3.37744,-4.715746 2.20725,-2.968183 9.47084,-9.495882 11.6052,-5.359238 0.28318,0.54883 0.35917,1.146553 0.47818,1.740609 0.25986,1.772277 0.27528,3.567498 0.28945,5.354997 0.004,1.710264 -0.017,3.420359 -0.0187,5.130641 -0.12996,1.65068 0.33154,3.13296 0.99148,4.613876 0.212,0.241742 0.68766,1.509715 1.04023,1.45974 0.11493,-0.0163 0.12416,-0.196172 0.18624,-0.294261 0.13816,-0.0044 0.27632,-0.0088 0.41448,-0.01318 0.0728,-0.01032 0.14551,-0.02066 0.21827,-0.03099 0,0 -9.12724,6.658815 -9.12724,6.658815 v 0 c -0.0681,-0.008 -0.13629,-0.0151 -0.20443,-0.0227 -1.37272,-0.0711 -1.70573,-1.23695 -2.26242,-2.27025 -0.7214,-1.608966 -1.3391,-3.228518 -1.20972,-5.032984 0.007,-1.707115 0.003,-3.414186 0.0139,-5.121269 0.004,-1.725486 0.0191,-3.458181 -0.19331,-5.173718 -0.053,-0.302956 -0.13143,-0.913792 -0.27268,-1.235795 -0.0678,-0.154599 -0.34256,0.204517 -0.26145,0.156974 8.90732,-5.220882 11.91406,-7.663997 8.57824,-4.998487 -1.24627,1.528189 -2.05559,3.362376 -3.37448,4.839973 -3.39701,4.031454 -5.16227,3.909904 -11.88363,7.835461 -1.1356,0.663241 -2.40688,1.012949 -3.71387,1.090964 -2.98697,-0.27292 -3.6196,-1.360239 -5.156193,-3.737594 0,0 9.751153,-5.552154 9.751153,-5.552154 z"
       inkscape:connector-curvature="0" />
    <path
       style="fill:#ffffff;stroke-width:0.26458332"
       id="path36"
       d="m 149.9001,82.092563 c -1.677,1.139585 -3.3918,2.201056 -4.94673,3.507804 -1.27074,1.034677 -1.91449,2.368444 -2.23123,3.938796 -0.19347,1.529086 -0.24576,3.084706 -0.12833,4.621358 0.22932,1.297014 0.42323,2.441943 1.57391,3.185875 1.23839,0.733816 2.51972,1.392835 3.78408,2.083681 1.61391,0.867203 3.28599,1.540493 5.08216,1.908143 1.82057,0.36084 3.61156,0.40489 5.43095,0.0975 3.94611,-1.73914 11.18526,-6.140412 -5.4181,3.36104 0.20818,-0.14033 0.41637,-0.28067 0.62455,-0.421 0,0 10.37456,-4.18557 10.37456,-4.18557 v 0 c -0.1922,0.19224 -0.38441,0.38447 -0.57662,0.5767 -0.96314,0.5563 -9.75212,6.57611 -13.96089,7.35476 -1.88991,0.17547 -3.7765,-0.0436 -5.62867,-0.4449 -1.8609,-0.47619 -3.61609,-1.2381 -5.31403,-2.13417 -1.29117,-0.74139 -2.66027,-1.34801 -3.88296,-2.20267 -1.29033,-1.08786 -1.68394,-2.37369 -1.98375,-4.004478 -0.21617,-1.615967 -0.1513,-3.253007 -0.0293,-4.876665 0.22217,-1.74062 0.67488,-3.376126 1.95576,-4.657432 1.47954,-1.361807 3.06957,-2.593575 4.85591,-3.527676 0,0 10.41874,-4.181126 10.41874,-4.181126 z"
       inkscape:connector-curvature="0" />
  </g>
</svg>
